<svg width="122" height="44" viewBox="0 0 122 44" fill="none" xmlns="http://www.w3.org/2000/svg">
<path d="M20.568 37.216C20.568 35.872 20.792 34.144 21.24 32.032C21.688 29.92 22.28 27.664 23.016 25.264C20.904 25.424 18.776 25.632 16.632 25.888C14.52 26.144 12.68 26.288 11.112 26.32C9.672 29.68 8.52 32.784 7.656 35.632C6.824 38.448 6.168 41.2 5.688 43.888C4.472 43.6 3.464 43.088 2.664 42.352C1.864 41.648 1.128 40.752 0.456 39.664C0.712 39.152 1 38.496 1.32 37.696C1.672 36.896 2.072 35.936 2.52 34.816C3 33.664 3.528 32.336 4.104 30.832C4.712 29.296 5.4 27.52 6.168 25.504C5.112 25.056 4.408 24.432 4.056 23.632C4.216 23.504 4.568 23.376 5.112 23.248C5.688 23.088 6.392 22.928 7.224 22.768L7.848 21.232C8.52 19.504 9.064 18.048 9.48 16.864C9.928 15.68 10.296 14.528 10.584 13.408C10.904 12.256 11.192 10.992 11.448 9.616C11.736 8.24 12.072 6.496 12.456 4.384C13.8 4.64 15.016 5.232 16.104 6.16C17.224 7.088 18.184 8.208 18.984 9.52C18.696 9.904 18.344 10.48 17.928 11.248C17.512 12.016 17.048 12.944 16.536 14.032C16.056 15.088 15.528 16.288 14.952 17.632C14.376 18.944 13.752 20.336 13.08 21.808C15.064 21.552 17.064 21.312 19.08 21.088C21.128 20.864 22.936 20.704 24.504 20.608C25.08 18.944 25.672 17.328 26.28 15.76C26.92 14.16 27.544 12.704 28.152 11.392C28.76 10.08 29.336 8.928 29.88 7.936C30.456 6.944 30.968 6.208 31.416 5.728C31.736 5.76 32.152 5.888 32.664 6.112C33.208 6.304 33.752 6.544 34.296 6.832C34.84 7.12 35.336 7.44 35.784 7.792C36.232 8.112 36.536 8.416 36.696 8.704C36.12 9.248 35.544 9.952 34.968 10.816C34.392 11.68 33.816 12.672 33.24 13.792C32.696 14.912 32.152 16.128 31.608 17.44C31.064 18.752 30.552 20.112 30.072 21.52C30.712 22.096 31.032 22.816 31.032 23.68C31.032 24.288 30.904 24.848 30.648 25.36C30.36 25.296 30.072 25.264 29.784 25.264C29.496 25.232 29.192 25.2 28.872 25.168C28.328 26.896 27.832 28.608 27.384 30.304C26.936 32 26.552 33.616 26.232 35.152C25.944 36.688 25.704 38.096 25.512 39.376C25.352 40.656 25.272 41.728 25.272 42.592C25.272 42.912 25.272 43.168 25.272 43.36C25.304 43.552 25.336 43.712 25.368 43.84C24.664 43.808 24.152 43.68 23.832 43.456C23.512 43.264 23.272 43.04 23.112 42.784C22.952 42.56 22.808 42.32 22.68 42.064C22.552 41.84 22.344 41.664 22.056 41.536C21.832 41.44 21.624 41.216 21.432 40.864C21.24 40.512 21.08 40.112 20.952 39.664C20.824 39.216 20.728 38.768 20.664 38.32C20.6 37.872 20.568 37.504 20.568 37.216ZM46.212 38.944C45.604 38.432 45.188 37.792 44.964 37.024C44.772 36.256 44.676 35.6 44.676 35.056C44.676 34.384 44.756 33.808 44.916 33.328C44.788 33.328 44.5 33.584 44.052 34.096C43.604 34.608 43.108 35.216 42.564 35.92C42.052 36.624 41.54 37.312 41.028 37.984C40.516 38.656 40.132 39.152 39.876 39.472C39.46 39.92 39.06 40.272 38.676 40.528C38.324 40.784 38.036 40.928 37.812 40.96C37.3 40.928 36.756 40.816 36.18 40.624C35.636 40.464 35.108 40.224 34.596 39.904C34.116 39.584 33.684 39.2 33.3 38.752C32.948 38.304 32.708 37.792 32.58 37.216C32.58 36.32 32.596 35.584 32.628 35.008C32.692 34.432 32.804 33.808 32.964 33.136C33.252 31.92 33.668 30.544 34.212 29.008C34.788 27.472 35.444 25.968 36.18 24.496C36.916 22.992 37.732 21.6 38.628 20.32C39.556 19.008 40.532 17.984 41.556 17.248C41.844 17.248 42.18 17.28 42.564 17.344C42.948 17.376 43.332 17.456 43.716 17.584C44.132 17.712 44.516 17.872 44.868 18.064C45.252 18.224 45.572 18.448 45.828 18.736C45.54 19.056 44.804 20.128 43.62 21.952C42.468 23.776 41.172 26.4 39.732 29.824C39.572 30.176 39.38 30.688 39.156 31.36C38.932 32.032 38.708 32.736 38.484 33.472C38.26 34.208 38.068 34.928 37.908 35.632C37.78 36.336 37.716 36.896 37.716 37.312C37.716 37.568 37.748 37.76 37.812 37.888C37.908 38.016 37.988 38.112 38.052 38.176C38.532 37.984 39.14 37.456 39.876 36.592C40.612 35.728 41.636 34.4 42.948 32.608C43.268 32.16 43.636 31.648 44.052 31.072C44.5 30.496 44.948 29.888 45.396 29.248C45.844 28.576 46.26 27.888 46.644 27.184C47.06 26.48 47.396 25.776 47.652 25.072C47.78 24.688 47.94 24.24 48.132 23.728C48.356 23.184 48.612 22.624 48.9 22.048C49.22 21.472 49.572 20.896 49.956 20.32C50.372 19.712 50.852 19.152 51.396 18.64C51.812 18.64 52.26 18.688 52.74 18.784C53.22 18.88 53.668 19.008 54.084 19.168C54.532 19.296 54.916 19.456 55.236 19.648C55.556 19.808 55.796 19.984 55.956 20.176C55.38 21.584 54.74 22.976 54.036 24.352C53.332 25.728 52.676 27.088 52.068 28.432C51.46 29.744 50.948 31.056 50.532 32.368C50.116 33.68 49.908 34.96 49.908 36.208C49.908 36.88 49.956 37.472 50.052 37.984C50.18 38.464 50.308 38.88 50.436 39.232C50.564 39.552 50.676 39.824 50.772 40.048C50.9 40.272 50.964 40.464 50.964 40.624C50.964 40.656 50.932 40.704 50.868 40.768C50.836 40.8 50.804 40.816 50.772 40.816C50.548 40.816 50.26 40.768 49.908 40.672C49.556 40.576 49.156 40.432 48.708 40.24C48.292 40.08 47.86 39.888 47.412 39.664C46.996 39.44 46.596 39.2 46.212 38.944ZM59.5193 21.616C59.3593 21.424 59.2153 21.024 59.0872 20.416C58.9593 19.776 58.8953 19.232 58.8953 18.784C59.7273 18.848 60.5273 18.912 61.2953 18.976C62.0633 19.008 62.7673 19.04 63.4073 19.072C63.8873 18.112 64.3993 17.168 64.9433 16.24C65.5193 15.28 66.0633 14.416 66.5753 13.648C67.1193 12.848 67.6153 12.176 68.0633 11.632C68.5433 11.088 68.9113 10.736 69.1673 10.576C69.4873 10.576 69.8873 10.64 70.3673 10.768C70.8793 10.864 71.3913 11.008 71.9033 11.2C72.4153 11.36 72.8793 11.536 73.2953 11.728C73.7113 11.92 73.9993 12.112 74.1593 12.304C73.1993 13.52 72.3673 14.656 71.6633 15.712C70.9913 16.736 70.2553 17.92 69.4553 19.264C70.0953 19.264 70.7353 19.248 71.3753 19.216C72.0473 19.184 72.7193 19.136 73.3913 19.072C73.5513 19.232 73.6793 19.44 73.7753 19.696C73.8713 19.92 73.9193 20.16 73.9193 20.416C72.3513 20.992 70.4473 21.312 68.2073 21.376C67.4073 22.912 66.6873 24.448 66.0473 25.984C65.4393 27.488 64.9113 28.944 64.4633 30.352C64.0473 31.76 63.7113 33.088 63.4553 34.336C63.2313 35.584 63.1193 36.704 63.1193 37.696C63.1193 39.104 63.6473 39.888 64.7032 40.048C65.6632 39.92 66.5753 39.68 67.4393 39.328C68.3033 38.976 69.0713 38.528 69.7433 37.984C69.9353 38.272 70.0473 38.512 70.0793 38.704C69.8873 38.992 69.5513 39.328 69.0713 39.712C68.6233 40.096 68.1273 40.464 67.5833 40.816C67.0393 41.2 66.5113 41.52 65.9993 41.776C65.4873 42.032 65.1033 42.176 64.8473 42.208C64.0473 42.176 63.2473 42 62.4473 41.68C61.6473 41.36 60.9113 40.96 60.2393 40.48C59.5993 40 59.0713 39.472 58.6553 38.896C58.2393 38.288 58.0312 37.696 58.0312 37.12C58.0312 36.352 58.1273 35.392 58.3193 34.24C58.5433 33.056 58.8473 31.776 59.2313 30.4C59.6153 29.024 60.0633 27.584 60.5753 26.08C61.0873 24.576 61.6473 23.088 62.2553 21.616H59.5193ZM73.5143 36.928C73.5143 35.52 73.8503 33.552 74.5223 31.024C75.1943 28.464 76.1383 25.488 77.3543 22.096C79.3383 16.688 81.1943 12.192 82.9223 8.608C84.6823 4.992 86.3943 2.176 88.0583 0.159998C88.4423 0.223997 88.9063 0.383997 89.4503 0.639997C90.0263 0.895998 90.5863 1.184 91.1303 1.504C91.6743 1.792 92.1543 2.096 92.5703 2.416C93.0183 2.736 93.3063 2.992 93.4343 3.184C90.9383 6.128 88.7463 9.296 86.8583 12.688C84.9703 16.08 83.2423 19.968 81.6743 24.352C80.3303 28.128 79.3063 31.536 78.6023 34.576C77.8983 37.584 77.5463 40.096 77.5463 42.112C77.5463 42.656 77.5463 42.992 77.5463 43.12C77.5463 43.248 77.5623 43.376 77.5943 43.504C77.1463 43.44 76.7623 43.328 76.4423 43.168C76.1223 43.008 75.9143 42.816 75.8183 42.592C75.7543 42.432 75.5783 42.192 75.2903 41.872C75.0023 41.584 74.7463 41.36 74.5223 41.2C74.2343 41.008 73.9943 40.512 73.8023 39.712C73.6103 38.88 73.5143 37.952 73.5143 36.928ZM101.903 20.128C101.775 22.112 101.423 23.824 100.847 25.264C100.271 26.672 99.4385 27.92 98.3505 29.008C97.2945 30.064 95.9985 31.024 94.4625 31.888C92.9265 32.752 91.1345 33.584 89.0865 34.384C89.0865 34.576 89.0705 34.784 89.0385 35.008C89.0385 35.2 89.0385 35.408 89.0385 35.632C89.0385 36.048 89.0705 36.48 89.1345 36.928C89.1985 37.376 89.3105 37.792 89.4705 38.176C89.6305 38.56 89.8545 38.88 90.1425 39.136C90.4305 39.36 90.7985 39.472 91.2465 39.472C92.1105 39.472 92.9585 39.28 93.7905 38.896C94.6225 38.512 95.4065 38.048 96.1425 37.504C96.9105 36.928 97.6145 36.32 98.2545 35.68C98.9265 35.008 99.5185 34.4 100.031 33.856C100.351 34.144 100.623 34.416 100.847 34.672C99.4065 36.592 97.8225 38.192 96.0945 39.472C94.3985 40.72 92.7825 41.52 91.2465 41.872C89.0385 41.616 87.3105 40.816 86.0625 39.472C84.8465 38.096 84.2385 36.448 84.2385 34.528C84.2385 33.216 84.4145 31.888 84.7665 30.544C85.1505 29.168 85.6625 27.856 86.3025 26.608C86.9745 25.328 87.7425 24.128 88.6065 23.008C89.5025 21.888 90.4465 20.912 91.4385 20.08C92.4625 19.248 93.5025 18.592 94.5585 18.112C95.6465 17.632 96.7185 17.392 97.7745 17.392C99.2465 17.584 100.623 18.496 101.903 20.128ZM98.5905 21.712C97.7265 21.84 96.8305 22.192 95.9025 22.768C94.9745 23.344 94.0945 24.112 93.2625 25.072C92.4625 26.032 91.7265 27.152 91.0545 28.432C90.3825 29.712 89.8545 31.088 89.4705 32.56C92.0305 31.28 94.1585 29.712 95.8545 27.856C97.5505 25.968 98.4625 23.92 98.5905 21.712ZM106.629 21.616C106.469 21.424 106.325 21.024 106.197 20.416C106.069 19.776 106.005 19.232 106.005 18.784C106.837 18.848 107.637 18.912 108.405 18.976C109.173 19.008 109.877 19.04 110.517 19.072C110.997 18.112 111.509 17.168 112.053 16.24C112.629 15.28 113.173 14.416 113.685 13.648C114.229 12.848 114.725 12.176 115.173 11.632C115.653 11.088 116.021 10.736 116.277 10.576C116.597 10.576 116.997 10.64 117.477 10.768C117.989 10.864 118.501 11.008 119.013 11.2C119.525 11.36 119.989 11.536 120.405 11.728C120.821 11.92 121.109 12.112 121.269 12.304C120.309 13.52 119.477 14.656 118.773 15.712C118.101 16.736 117.365 17.92 116.565 19.264C117.205 19.264 117.845 19.248 118.485 19.216C119.157 19.184 119.829 19.136 120.501 19.072C120.661 19.232 120.789 19.44 120.885 19.696C120.981 19.92 121.029 20.16 121.029 20.416C119.461 20.992 117.557 21.312 115.317 21.376C114.517 22.912 113.797 24.448 113.157 25.984C112.549 27.488 112.021 28.944 111.573 30.352C111.157 31.76 110.821 33.088 110.565 34.336C110.341 35.584 110.229 36.704 110.229 37.696C110.229 39.104 110.757 39.888 111.813 40.048C112.773 39.92 113.685 39.68 114.549 39.328C115.413 38.976 116.181 38.528 116.853 37.984C117.045 38.272 117.157 38.512 117.189 38.704C116.997 38.992 116.661 39.328 116.181 39.712C115.733 40.096 115.237 40.464 114.693 40.816C114.149 41.2 113.621 41.52 113.109 41.776C112.597 42.032 112.213 42.176 111.957 42.208C111.157 42.176 110.357 42 109.557 41.68C108.757 41.36 108.021 40.96 107.349 40.48C106.709 40 106.181 39.472 105.765 38.896C105.349 38.288 105.141 37.696 105.141 37.12C105.141 36.352 105.237 35.392 105.429 34.24C105.653 33.056 105.957 31.776 106.341 30.4C106.725 29.024 107.173 27.584 107.685 26.08C108.197 24.576 108.757 23.088 109.365 21.616H106.629Z" fill="white"/>
</svg>
